<svg width="13" height="12" viewBox="0 0 13 12" fill="none" xmlns="http://www.w3.org/2000/svg">
<path fill-rule="evenodd" clip-rule="evenodd" d="M3.33796 3.9032V12H0.658401V3.9032H3.33796ZM3.51419 1.39898C3.51419 2.17598 2.93259 2.79772 1.99817 2.79772H1.99812H1.9807C1.08147 2.79772 0.5 2.17598 0.5 1.39898C0.5 0.604491 1.0993 0 2.0159 0C2.93259 0 3.49677 0.604491 3.51419 1.39898ZM7.50022 12H4.82075C4.82075 12 4.85591 4.66295 4.82075 3.9032H7.50029V5.04956C7.49424 5.05892 7.48828 5.06822 7.4824 5.07745H7.50029V5.04956C7.85639 4.49784 8.49371 3.71321 9.91513 3.71321C11.6781 3.71321 13 4.87044 13 7.35741V12H10.3207V7.6684C10.3207 6.57993 9.93283 5.83744 8.96323 5.83744C8.22299 5.83744 7.78209 6.33819 7.58839 6.82168C7.51763 6.99467 7.50022 7.23642 7.50022 7.47841V12Z" fill="#F7F7F8"/>
</svg>
