<svg width="72" height="72" viewBox="0 0 72 72" fill="none" xmlns="http://www.w3.org/2000/svg">
<g clip-path="url(#clip0_4267_481)">
<path d="M60.0242 4.04004H42.4483V4.05338H40.5532V4.08007C39.7792 4.13346 39.0719 4.41371 38.4847 4.84077C37.7907 5.36124 37.2702 6.09524 37.0433 6.96269C36.9766 7.21626 36.9366 7.48317 36.9232 7.76342C36.9232 7.83015 36.9232 7.88353 36.9232 7.95026V8.96451V9.53837V21.7628L36.9099 21.7495C36.8965 22.0698 36.8699 22.3767 36.8432 22.697C36.7764 24.2984 35.2951 25.2326 34.094 26.1401C35.2817 27.101 36.5763 28.1419 36.8031 29.6767C36.8565 30.1438 36.9099 30.6242 36.9366 31.0913V42.7018L36.9499 43.9296C36.9499 43.9563 36.9499 43.983 36.9499 44.023C36.9499 44.0364 36.9499 44.0364 36.9499 44.0497C36.9499 44.1031 36.9499 44.1565 36.9499 44.2099C36.9499 44.2632 36.9499 44.3166 36.9499 44.37C36.9499 44.4234 36.9499 44.4901 36.9633 44.5435C36.99 44.8771 37.0567 45.1974 37.1768 45.491C37.7106 46.9991 39.1653 48.08 40.8735 48.08H42.515H42.5283H60.0776L60.0643 48.0667H60.0776V4.04004H60.0242ZM47.0391 17.906C45.5978 17.906 44.4501 16.825 44.4501 15.5038C44.4367 14.1692 45.5978 13.1016 47.0391 13.1016C48.4804 13.1016 49.6281 14.1826 49.6281 15.5038C49.6281 16.8383 48.4537 17.906 47.0391 17.906Z" fill="#FCCC0F"/>
<path d="M34.8948 47.9866L35.095 48.0267C35.095 48.0267 32.3458 47.4662 32.4659 44.4367C32.4659 44.41 32.4659 44.3834 32.4659 44.3567C32.4659 44.3033 32.4659 44.2499 32.4659 44.1965C32.4659 44.1431 32.4659 44.0898 32.4659 44.0364C32.4659 44.023 32.4659 44.023 32.4659 44.0097C32.4659 43.983 32.4659 43.9563 32.4659 43.9163L32.4526 42.6885V31.0779C32.4259 30.6108 32.3725 30.1304 32.3191 29.6633C32.0923 28.1152 30.7977 27.0743 29.61 26.1268C30.8111 25.2326 32.2924 24.2851 32.3592 22.6836C32.3859 22.3634 32.4125 22.0564 32.4259 21.7361L32.4392 21.7495V7.93691C32.4392 7.87018 32.4392 7.8168 32.4392 7.75007C32.4392 7.72338 32.4392 7.69669 32.4392 7.68335C32.2791 4.62724 35.1083 4.04004 35.1083 4.04004L13.1017 4V4.02669H12.3276V43.1823V48.0667H13.1017H35.1083V48.04C35.0549 48.0267 34.9749 48.0133 34.8948 47.9866Z" fill="#008594"/>
<path d="M12.4076 58.196C11.5135 58.196 10.4058 58.5831 9.77858 59.624C9.31149 58.7165 8.43069 58.196 7.26964 58.196C6.44222 58.196 5.68153 58.5697 5.14771 59.237V58.5831H4V67.3243H5.14771V61.8794C5.14771 60.1979 6.21534 59.2904 7.21625 59.2904C7.80345 59.2904 9.17803 59.5039 9.17803 61.439V67.351H10.3257V61.5991C10.3257 59.8776 11.3667 59.2637 12.3409 59.2637C14.2093 59.2637 14.3561 60.9052 14.3561 61.4123V67.3243H15.5038V61.4257H15.5171V61.4123C15.5038 59.0368 13.8356 58.196 12.4076 58.196Z" fill="#008594"/>
<path d="M25.9667 60.011C25.1393 58.8633 23.8448 58.196 22.3768 58.196C19.7611 58.196 17.6392 60.318 17.6392 62.9337C17.6392 65.5494 19.7611 67.6713 22.3768 67.6713C23.8448 67.6713 25.1393 67.004 25.9667 65.8563V67.311H27.1144V58.5564H25.9667V60.011V60.011ZM25.9801 62.9203C25.9801 64.9488 24.3653 66.6037 22.3901 66.6037C20.415 66.6037 18.8002 64.9488 18.8002 62.9203C18.8002 60.8918 20.415 59.237 22.3901 59.237C24.3653 59.237 25.9801 60.8918 25.9801 62.9203Z" fill="#008594"/>
<path d="M38.2177 58.196C37.3236 58.196 36.2159 58.5831 35.5886 59.624C35.1216 58.7165 34.2408 58.196 33.0797 58.196C32.2523 58.196 31.4916 58.5697 30.9578 59.237V58.5831H29.8101V67.3243H30.9578V61.8794C30.9578 60.1979 32.0254 59.2904 33.0263 59.2904C33.6135 59.2904 34.9881 59.5039 34.9881 61.439V67.351H36.1358V61.5991C36.1358 59.8776 37.1768 59.2637 38.151 59.2637C40.0193 59.2637 40.1661 60.9052 40.1661 61.4123V67.3243H41.3139V61.4257H41.3272V61.4123C41.3139 59.0368 39.6457 58.196 38.2177 58.196Z" fill="#008594"/>
<path d="M48.6273 58.1693C47.1593 58.1693 45.8648 58.8366 45.0374 59.9843V52.9646H43.8896V67.2443H45.0374V65.8029C45.8648 66.9507 47.1593 67.6179 48.6273 67.6179C48.654 67.6179 48.6807 67.6179 48.7073 67.6179C49.9218 67.6179 51.0828 67.1508 51.9636 66.2834C52.8711 65.3892 53.3783 64.2015 53.3783 62.9203C53.3649 60.3046 51.243 58.1693 48.6273 58.1693ZM52.2172 62.9203C52.2172 64.9488 50.6024 66.6037 48.6273 66.6037C46.6522 66.6037 45.0374 64.9488 45.0374 62.9203C45.0374 60.8918 46.6522 59.237 48.6273 59.237C50.6024 59.237 52.2172 60.8918 52.2172 62.9203Z" fill="#008594"/>
<path d="M56.7815 52.978H55.6338V67.2977H56.7815V52.978Z" fill="#008594"/>
<path d="M63.641 58.1694C61.0252 58.1694 58.9033 60.2914 58.9033 62.9071C58.9033 65.5228 61.0252 67.6447 63.641 67.6447C65.3492 67.6447 66.8839 66.7639 67.738 65.2959L67.8448 65.1224L66.8839 64.5619L66.7771 64.7354C66.1099 65.8965 64.9088 66.6171 63.641 66.6171C61.8527 66.6171 60.3179 65.2425 60.0777 63.4409H68.3252L68.3519 63.2807C68.3786 63.1473 68.3786 63.0272 68.3786 62.9204C68.3786 60.3047 66.2567 58.1694 63.641 58.1694ZM60.0911 62.3999C60.3446 60.6117 61.866 59.2371 63.6543 59.2371C65.4426 59.2371 66.964 60.6117 67.2175 62.3999H60.0911Z" fill="#008594"/>
</g>
<defs>
<clipPath id="clip0_4267_481">
<rect width="72" height="72" fill="white"/>
</clipPath>
</defs>
</svg>
